<svg width="22" height="21" viewBox="0 0 22 21" fill="none" xmlns="http://www.w3.org/2000/svg">
<g id="error-circle" />
<mask id="mask0_409_10314" style="mask-type:luminance" maskUnits="userSpaceOnUse" x="0" y="0" width="22" height="21">
<path id="01_PC/01_Basic/26_warning" fill-rule="evenodd" clip-rule="evenodd" d="M10.1258 0.906935C10.5068 0.221126 11.4931 0.221126 11.8742 0.906935L21.8413 18.8478C22.2116 19.5143 21.7296 20.3335 20.9671 20.3335H1.03284C0.270358 20.3335 -0.211612 19.5143 0.158684 18.8478L10.1258 0.906935ZM9.89166 9.25012H12.0792L11.6417 13.9168H10.3292L9.89166 9.25012ZM10.9767 16.8918C11.6049 16.8918 12.1142 16.3825 12.1142 15.7543C12.1142 15.1261 11.6049 14.6168 10.9767 14.6168C10.3484 14.6168 9.83916 15.1261 9.83916 15.7543C9.83916 16.3825 10.3484 16.8918 10.9767 16.8918Z" fill="white"/>
</mask>
<g mask="url(#mask0_409_10314)">
<g id="02_PC/01_&#229;&#161;&#171;&#229;&#133;&#133;/01_&#229;&#184;&#184;&#232;&#167;&#132;/04_O4 Warning" />
<rect id="&#231;&#159;&#169;&#229;&#189;&#162;" x="-3" y="-3" width="28" height="28" fill="#ED6A0C"/>
</g>
</svg>
